<?xml version="1.0" encoding="utf-8"?>
<!-- Generator: Adobe Illustrator 15.1.0, SVG Export Plug-In  -->
<!DOCTYPE svg PUBLIC "-//W3C//DTD SVG 1.1//EN" "http://www.w3.org/Graphics/SVG/1.1/DTD/svg11.dtd" [
	<!ENTITY ns_flows "http://ns.adobe.com/Flows/1.0/">
]>
<svg version="1.1"
	 xmlns="http://www.w3.org/2000/svg" xmlns:xlink="http://www.w3.org/1999/xlink" xmlns:a="http://ns.adobe.com/AdobeSVGViewerExtensions/3.0/"
	 x="0px" y="0px" width="141px" height="45px" viewBox="0 0 141 45" enable-background="new 0 0 141 45" xml:space="preserve">
<defs>
</defs>
<g>
	<defs>
		<rect id="SVGID_1_" width="141" height="45.249"/>
	</defs>
	<clipPath id="SVGID_2_">
		<use xlink:href="#SVGID_1_"  overflow="visible"/>
	</clipPath>
	<path clip-path="url(#SVGID_2_)" fill="#000000" d="M138.191,9.767c0-0.772,0.657-1.361,1.403-1.361
		c0.77,0,1.406,0.588,1.406,1.361c0,0.818-0.636,1.404-1.406,1.404C138.848,11.171,138.191,10.585,138.191,9.767 M139.594,10.944
		c0.636,0,1.132-0.496,1.132-1.177c0-0.636-0.496-1.134-1.132-1.134c-0.632,0-1.11,0.498-1.11,1.134
		C138.483,10.448,138.962,10.944,139.594,10.944 M139.301,10.585h-0.226v-1.59h0.589c0.386,0,0.586,0.137,0.586,0.452
		c0,0.273-0.2,0.409-0.429,0.432l0.452,0.706h-0.271l-0.409-0.706h-0.293V10.585z M139.594,9.676c0.207,0,0.389,0,0.389-0.249
		c0-0.205-0.161-0.229-0.343-0.229h-0.338v0.479H139.594z"/>
	<path clip-path="url(#SVGID_2_)" fill="#000000" d="M51.374,10.357c-1.636-0.07-6.078,2.81-8.48,6.708
		c-2.377,3.901-2.65,6.685-2.377,8.069c0.248,1.384,1.699,4.011,4.849,3.583c3.446-0.454,5.394-2.653,6.367-3.991
		c0.976-1.334,1.452-1.902,0.479-2.675c-0.998-0.768-2.177-0.452-3.082,0.726c-0.932,1.181-3.492,3.833-4.785,2.408
		c-1.27-1.434,0.816-5.172,1.452-6.058c0.61-0.885,3.333-5.303,5.483-5.326c0.77-0.022,0,1.543-0.316,2.445
		c-0.295,0.931-0.045,2.358,1.136,2.429c1.175,0.045,2.716-0.318,2.289-5.214C54.091,10.105,51.374,10.357,51.374,10.357"/>
	<path clip-path="url(#SVGID_2_)" fill="#000000" d="M66.627,20.713c0.703-0.363,1.384-1.743,1.384-2.041
		c0-0.318-0.521-0.34-0.725-0.34c-0.205,0-0.568,0.186-1.223,0.956c-0.908,1.041-0.979,1.493-0.727,1.679
		C65.336,20.967,65.766,21.146,66.627,20.713 M59.781,9.949c0.161-0.252,0.615-0.682,1.768-0.205
		c1.204,0.449,1.065,1.427,0.817,2.243c-0.272,0.838-3.333,7.34-3.899,8.887c-0.568,1.537-1.088,2.809-0.771,3.286
		c0.295,0.453,1.497-0.975,1.836-1.429c0.361-0.477,0.884-1.133,1.13-1.338c0.252-0.203,0.207-0.157,0.568-0.77
		c0.364-0.61,1.564-2.604,3.018-3.964c0.702-0.638,1.995-1.565,4.283-0.977c1.561,0.43,3.036,3.877-0.68,6.688
		c-1.681,1.248-3.447,0.702-3.743,0.882c-0.156,0.091-0.134,0.318-0.156,0.703c-0.044,0.863,0.229,1.177,0.927,1.431
		c1.273,0.473,3.151-2.156,3.517-2.064c0.519,0.113,0.451,0.885,0.045,1.974c-0.66,1.906-2.289,3.012-4.533,3.012
		c-2.383,0-3.448-2.671-3.448-2.671s-0.769,0.473-1.088,0.723c-0.135,0.115-0.452,0.591-0.771,0.843
		c-0.656,0.539-1.79,1.518-3.171,0.745c-0.339-0.18-1.997-0.906-1.384-4.081c0.681-3.558,4.826-11.72,5.148-12.17
		C59.194,11.694,58.942,11.171,59.781,9.949"/>
	<path clip-path="url(#SVGID_2_)" fill="#000000" d="M73.451,15.638c0.248-0.295,1.154-0.752,1.745-0.366
		c0.588,0.409,1.313,0.679,1.131,1.749c-0.18,0.884-1.225,2.381-1.789,4.125c-0.565,1.746-0.454,2.538,0.066,2.901
		c0.363,0.25,0.998-0.409,1.404-0.927c0.409-0.501,1.7-2.769,1.789-3.425c0.116-0.68,0.116-0.974,0.208-1.744
		c0.114-0.772,0.477-2.724,2.108-2.563c1.768,0.159,1.179,3.083,0.975,3.445c-0.229,0.34-0.432,1.088-0.025,1.317
		c0.32,0.157,1.293-0.138,1.704-0.456c0.207-0.157,0.632-0.861,1.291-1.702c0.726-0.907,1.565-1.745,2.129-2.125
		c1.339-0.909,3.583-1.32,4.602,0.134c1.747,2.536-0.706,5.64-2.063,6.253c-1.427,0.659-2.764,0.521-3.083,0.659
		c-0.295,0.157-0.405,0.725-0.339,1.198c0.043,0.456,0.457,1.183,1.38,1.069c1.14-0.114,2.654-1.995,2.862-2.088
		c0.292-0.134,0.768,0.093,0.044,2.268c-0.387,1.157-1.766,2.177-3.014,2.445c-1.228,0.251-3.219,0.05-4.036-1.448
		c-0.909-1.588-0.52-3.49-0.726-3.627c-0.203-0.158-0.568-0.067-0.77-0.112c-0.203-0.045-0.93-0.045-1.382,0.25
		c-0.479,0.318-1.272,1.722-2.381,3.106c-0.677,0.838-1.633,1.991-3.221,2.131c-1.674,0.157-2.493-0.795-2.764-1.543
		c-0.338-0.861-0.318-3.017,0-4.921c0.293-1.902,1.541-4.259,1.746-4.827C73.042,16.814,73.201,15.951,73.451,15.638 M88.386,20.011
		c0.727-0.681,1.181-1.722,0.818-2.019c-0.454-0.362-1.246,0.274-1.813,0.84c-0.5,0.498-1.178,1.588-1.022,1.792
		C86.369,20.625,87.004,21.236,88.386,20.011"/>
	<path clip-path="url(#SVGID_2_)" fill="#000000" d="M97.252,9.811c0.205-0.251,0.769-0.634,1.519-0.431
		c0.771,0.228,1.403,1.135,1.359,2.061c-0.021,0.571-2.315,4.853-3.172,6.668c-0.886,1.787-2.493,5.733-1.609,6.275
		c0.542,0.317,2.673-2.786,3.444-3.875c0.77-1.066,3.787-5.624,5.825-5.44c2.133,0.204,2.154,1.202,2.722,1.858
		c0.566,0.682,1.698,0.725,1.857,1.59c0.138,0.881-0.339,0.881-1.312,3.238c-0.208,0.475-0.884,1.652-0.048,2.175
		c0.816,0.495,3.424-3.263,3.424-3.263s1.516-5.372,2.833-5.372c2.537,0.024,1.677,2.177,2.041,2.356
		c0.704,0.411,2.311-3.034,4.511-2.379c0.863,0.272,1.493,2.042,0.656,3.829c-2.085,4.376-2.108,5.374-1.224,5.262
		c0.521-0.047,1.902-1.791,3.354-4.308c1.25-2.22,2.854-4.963,5.895-5.124c1.27-0.064,2.222,0.818,2.222,0.818
		s0.929-1.927,1.54-3.063c0.638-1.13,1.631-3.442,2.359-3.625c0.409-0.113,1.743,0.496,1.881,1.405
		c0.158,1.177-2.47,5.735-3.083,7.276c-0.612,1.542-2.856,6.098-1.907,6.302c1.84,0.43,2.927-3.696,3.517-3.333
		c1.243,0.793,0.59,1.996-0.704,4.013c-1.224,1.926-2.63,2.967-3.967,3.174c-1.725,0.269-1.905-2.132-2.469-2.109
		c-0.683,0.066-1.473,2.516-3.696,2.173c-1.991-0.315-1.743-1.925-2.833-2.173c-1.022-0.203-0.998,2.313-4.126,2.22
		c-1.7-0.066-2.016-1.745-2.039-2.922c-0.024-1.881,1.971-4.918,1.446-5.238c-0.813-0.522-2.943,1.838-3.712,3.717
		c-0.796,1.927-0.796,3.74-0.933,3.966c-0.066,0.158-0.316,0.772-1.425,0.681c-0.997-0.111-1.224-0.636-1.427-0.995
		c-0.208-0.343-0.274-0.659-0.706-0.543c-0.611,0.159-1.473,1.468-3.104,1.359c-1.335-0.113-1.72-2.179-2.085-1.972
		c-0.364,0.202-1.496,1.745-3.375,1.993c-1.907,0.25-2.517-1.949-2.884-1.993c-0.696-0.114-1.266,0.772-1.989,1.383
		c-0.772,0.657-1.295,0.882-2.424,0.657c-0.479-0.093-1.181-0.525-1.545-1.997c-0.339-1.496,0.682-5.079,1.088-6.414
		c0.406-1.337,3.856-8.477,3.99-8.928C96.935,10.766,97.026,10.083,97.252,9.811 M127.923,18.65
		c-0.727,0.818-1.836,2.948-2.09,3.877c-0.403,1.359-0.086,2.155,0.731,2.039c0.834-0.089,1.948-1.38,2.92-3.374
		c0.999-2.089,0.999-3.019,0.522-3.263C129.553,17.653,128.534,17.929,127.923,18.65 M103.575,18.698
		c-0.61,0.77-1.652,2.47-2.107,3.534c-0.363,0.861-0.363,2.675,0.293,2.675c0.684,0,1.906-0.907,2.881-3.106
		c0.973-2.22,1.475-3.467,1.085-3.736C105.115,17.609,104.075,18.016,103.575,18.698"/>
	<path clip-path="url(#SVGID_2_)" fill="#000000" d="M75.718,32.475l-0.927,0.751l-0.524-0.295
		c-0.636-0.271-1.042-0.547-2.491-0.547c-2.224,0-3.197,1-3.197,1.976c0,0.816,0.928,1.993,3.441,1.993
		c1.158,0,1.999-0.292,2.269-0.429v-0.728h-2.063h-0.975v-1.02h0.975h3.784v0.611v1.001v0.631c-0.498,0.343-2.036,0.954-3.989,0.954
		c-3.354,0-5.164-1.541-5.164-3.014c0-1.474,1.516-2.813,4.919-2.995C71.776,31.366,74.107,31.296,75.718,32.475"/>
	<path clip-path="url(#SVGID_2_)" fill="#000000" d="M85.556,37.375c-3.286,0-4.785-1.566-4.785-3.016
		c0-1.427,1.499-2.992,4.785-2.992c3.285,0,4.785,1.565,4.785,2.992C90.341,35.808,88.841,37.375,85.556,37.375 M85.556,32.383
		c-1.904,0-3.059,0.751-3.059,1.976c0,1.248,1.155,1.996,3.059,1.996c1.927,0,3.058-0.748,3.058-1.996
		C88.614,33.134,87.482,32.383,85.556,32.383"/>
	<polygon clip-path="url(#SVGID_2_)" fill="#000000" points="101.896,36.287 102.853,36.287 102.853,37.306 101.896,37.306 
		95.731,37.306 95.731,36.669 95.731,32.072 95.731,31.435 97.412,31.435 97.412,36.261 	"/>
	<polygon clip-path="url(#SVGID_2_)" fill="#000000" points="115.023,31.434 108.043,31.434 108.043,37.305 109.718,37.305 
		109.718,36.675 109.718,34.813 113.415,34.813 113.415,33.79 109.718,33.79 109.718,32.454 115.023,32.454 	"/>
	<path clip-path="url(#SVGID_2_)" fill="#000000" d="M36.564,5.445C29.169-1.854,16.259-1.8,8.862,5.521L5.546,8.808
		c-7.395,7.3-7.395,20.12,0,27.444l3.279,3.246c7.396,7.319,19.889,7.827,27.283,0.506c0,0,3.754-3.714,3.774-3.752
		c0.189-0.208,0.17-0.418-0.095-0.658c0-0.019-2.085-1.879-2.104-1.896c-0.911-0.918-2.483-0.827-3.547,0.187
		c-0.018,0.019-1.954,1.95-1.954,1.95c-5.44,5.372-13.896,4.938-19.317-0.428l-3.129-3.099c-5.422-5.369-5.403-14.17,0.02-19.559
		l3.126-3.099c5.442-5.371,14.22-5.351,19.641,0.019l2.033,2.012c0.833,0.828,2.124,0.857,2.767,0.203
		c0.017-0.015,2.498-2.289,2.523-2.309c0.246-0.242,0.301-0.506,0.036-0.75C39.862,8.808,36.564,5.445,36.564,5.445"/>
	<path clip-path="url(#SVGID_2_)" fill="#000000" d="M19.121,17.084c2.162-2.158,4.891-2.158,6.996-0.074l1.345,1.333
		c0.721,0.712,2.257,1.109,3.413,0.038l1.956-1.937c0.246-0.318,0.094-0.484-0.059-0.671l-2.747-2.724
		c-2.184-2.12-4.721-3.247-7.338-3.247c-2.658-0.022-5.179,1.126-7.321,3.247l-2.237,2.216c-2.16,2.196-3.299,4.73-3.299,7.302
		c0,2.573,1.159,5.067,3.299,7.227l2.237,2.198c4.398,4.334,10.162,4.334,14.659,0c0.055-0.057,2.559-2.516,2.559-2.516
		c0.302-0.358,0.284-0.562-0.04-0.886l-9.536-9.441c-0.209-0.207-0.399-0.207-0.587-0.038l-2.374,2.33
		c-0.778,0.784-0.778,2.065,0,2.833c0,0,2.941,2.931,4.23,4.206c0,0,0.208,0.208,0.228,0.32c0.02,0.13-0.02,0.222-0.057,0.28
		c-0.135,0.113-0.305,0.227-0.418,0.263c-0.265,0.076-0.587,0.149-1.081,0.206c-0.984,0.111-2.465-0.206-3.451-1.202l-2.426-2.385
		c-2.104-2.08-2.067-4.806,0.056-6.925L19.121,17.084z"/>
	<path clip-path="url(#SVGID_2_)" fill="#000000" d="M41.348,38.452v-0.347h0.23c0.121,0,0.242,0.028,0.242,0.163
		c0,0.172-0.127,0.184-0.269,0.184H41.348z M41.348,38.595h0.195l0.295,0.48h0.189l-0.318-0.488c0.163-0.02,0.288-0.107,0.288-0.307
		c0-0.222-0.129-0.318-0.392-0.318h-0.422v1.113h0.165V38.595z M41.552,39.485c0.53,0,0.983-0.409,0.983-0.967
		c0-0.555-0.453-0.962-0.983-0.962c-0.525,0-0.98,0.407-0.98,0.962C40.572,39.076,41.026,39.485,41.552,39.485 M40.767,38.518
		c0-0.459,0.342-0.803,0.785-0.803c0.439,0,0.786,0.344,0.786,0.803c0,0.467-0.347,0.808-0.786,0.808
		C41.109,39.325,40.767,38.985,40.767,38.518"/>
</g>
</svg>
